<?xml version="1.0" encoding="utf-8"?>
<svg viewBox="185.1695 111.2025 103.146 103.1543" xmlns="http://www.w3.org/2000/svg">
  <path fill-rule="evenodd" clip-rule="evenodd" d="M 188.522 114.564 C 193.003 110.082 200.258 110.082 204.728 114.564 L 236.738 146.574 L 268.749 114.564 C 273.23 110.082 280.485 110.082 284.954 114.564 C 289.436 119.033 289.436 126.3 284.954 130.769 L 252.955 162.78 L 284.954 194.79 C 289.436 199.26 289.436 206.526 284.954 210.996 C 280.485 215.477 273.23 215.477 268.749 210.996 L 236.738 178.986 L 204.728 210.996 C 200.258 215.477 193.003 215.477 188.522 210.996 C 184.052 206.526 184.052 199.26 188.522 194.79 L 220.532 162.78 L 188.522 130.769 C 184.052 126.3 184.052 119.033 188.522 114.564 Z" fill="#000000" style=""/>
</svg>
